<svg width="35" height="35" viewBox="0 0 35 35" fill="none" xmlns="http://www.w3.org/2000/svg">
<rect width="35" height="35" rx="8" fill="#2401A4"/>
<path d="M23.5002 13.564C23.4452 13.5548 23.3811 13.5548 23.3261 13.564C22.0611 13.5182 21.0527 12.4823 21.0527 11.199C21.0527 9.88815 22.1069 8.83398 23.4177 8.83398C24.7286 8.83398 25.7827 9.89732 25.7827 11.199C25.7736 12.4823 24.7652 13.5182 23.5002 13.564Z" stroke="white" stroke-width="1.5" stroke-linecap="round" stroke-linejoin="round"/>
<path d="M22.5558 20.2375C23.8117 20.4483 25.1958 20.2283 26.1675 19.5775C27.46 18.7158 27.46 17.3041 26.1675 16.4425C25.1867 15.7916 23.7842 15.5716 22.5283 15.7916" stroke="white" stroke-width="1.5" stroke-linecap="round" stroke-linejoin="round"/>
<path d="M12.4724 13.564C12.5274 13.5548 12.5916 13.5548 12.6466 13.564C13.9116 13.5182 14.9199 12.4823 14.9199 11.199C14.9199 9.88815 13.8658 8.83398 12.5549 8.83398C11.2441 8.83398 10.1899 9.89732 10.1899 11.199C10.1991 12.4823 11.2074 13.5182 12.4724 13.564Z" stroke="white" stroke-width="1.5" stroke-linecap="round" stroke-linejoin="round"/>
<path d="M13.4165 20.2375C12.1607 20.4483 10.7765 20.2283 9.80482 19.5775C8.51232 18.7158 8.51232 17.3041 9.80482 16.4425C10.7857 15.7916 12.1882 15.5716 13.444 15.7916" stroke="white" stroke-width="1.5" stroke-linecap="round" stroke-linejoin="round"/>
<path d="M18.0001 20.4097C17.9451 20.4005 17.8809 20.4005 17.8259 20.4097C16.5609 20.3639 15.5526 19.328 15.5526 18.0447C15.5526 16.7339 16.6068 15.6797 17.9176 15.6797C19.2284 15.6797 20.2826 16.743 20.2826 18.0447C20.2734 19.328 19.2651 20.373 18.0001 20.4097Z" stroke="white" stroke-width="1.5" stroke-linecap="round" stroke-linejoin="round"/>
<path d="M15.3327 23.2971C14.0402 24.1588 14.0402 25.5704 15.3327 26.4321C16.7993 27.4129 19.201 27.4129 20.6677 26.4321C21.9602 25.5704 21.9602 24.1588 20.6677 23.2971C19.2102 22.3254 16.7993 22.3254 15.3327 23.2971Z" stroke="white" stroke-width="1.5" stroke-linecap="round" stroke-linejoin="round"/>
</svg>
