<svg width="30" height="30" viewBox="0 0 30 30" fill="none" xmlns="http://www.w3.org/2000/svg">
<rect width="30" height="30" rx="8" fill="#FAB446"/>
<path d="M20.8758 20.582L18.2908 23.167" stroke="white" stroke-width="1.5" stroke-linecap="round" stroke-linejoin="round"/>
<path d="M20.8758 23.167L18.2908 20.582" stroke="white" stroke-width="1.5" stroke-linecap="round" stroke-linejoin="round"/>
<path d="M15.1467 13.9629C15.0551 13.9537 14.9451 13.9537 14.8442 13.9629C12.6626 13.8895 10.9301 12.102 10.9301 9.90203C10.9301 7.6562 12.7451 5.83203 15.0001 5.83203C17.2459 5.83203 19.0701 7.6562 19.0701 9.90203C19.0609 12.102 17.3284 13.8895 15.1467 13.9629Z" stroke="white" stroke-width="1.5" stroke-linecap="round" stroke-linejoin="round"/>
<path d="M15 23.9929C13.3317 23.9929 11.6725 23.5712 10.4075 22.7279C8.18919 21.2429 8.18919 18.8229 10.4075 17.347C12.9284 15.6604 17.0625 15.6604 19.5834 17.347" stroke="white" stroke-width="1.5" stroke-linecap="round" stroke-linejoin="round"/>
</svg>
