<svg width="30" height="30" viewBox="0 0 30 30" fill="none" xmlns="http://www.w3.org/2000/svg">
<rect width="30" height="30" rx="8" fill="#FF9951"/>
<path d="M20.5 21.2876H19.8033C19.07 21.2876 18.3733 21.5718 17.86 22.0851L16.2925 23.6343C15.5775 24.3401 14.4133 24.3401 13.6983 23.6343L12.1308 22.0851C11.6175 21.5718 10.9117 21.2876 10.1875 21.2876H9.5C7.97833 21.2876 6.75 20.0685 6.75 18.5651V8.56427C6.75 7.06094 7.97833 5.8418 9.5 5.8418H20.5C22.0217 5.8418 23.25 7.06094 23.25 8.56427V18.5651C23.25 20.0593 22.0217 21.2876 20.5 21.2876Z" stroke="white" stroke-width="1.5" stroke-miterlimit="10" stroke-linecap="round" stroke-linejoin="round"/>
<path d="M15.2567 17.7147C15.1192 17.7605 14.89 17.7605 14.7433 17.7147C13.5517 17.3022 10.875 15.6063 10.875 12.7188C10.875 11.4446 11.9017 10.418 13.1667 10.418C13.9183 10.418 14.5783 10.7755 15 11.3346C15.4217 10.7755 16.0817 10.418 16.8333 10.418C18.0983 10.418 19.125 11.4446 19.125 12.7188C19.1158 15.6063 16.4483 17.3022 15.2567 17.7147Z" stroke="white" stroke-width="1.5" stroke-linecap="round" stroke-linejoin="round"/>
</svg>
