<svg width="30" height="30" viewBox="0 0 30 30" fill="none" xmlns="http://www.w3.org/2000/svg">
<rect width="30" height="30" rx="8" fill="#6F72FF"/>
<path d="M14.9987 22.7923H10.4154C7.66536 22.7923 5.83203 21.4173 5.83203 18.209V11.7923C5.83203 8.58398 7.66536 7.20898 10.4154 7.20898H19.582C22.332 7.20898 24.1654 8.58398 24.1654 11.7923V14.5423" stroke="white" stroke-width="1.5" stroke-miterlimit="10" stroke-linecap="round" stroke-linejoin="round"/>
<path d="M19.5846 12.25L16.7155 14.5417C15.7713 15.2933 14.2221 15.2933 13.278 14.5417L10.418 12.25" stroke="white" stroke-width="1.5" stroke-miterlimit="10" stroke-linecap="round" stroke-linejoin="round"/>
<path d="M21.6127 17.5409L18.3677 20.7859C18.2394 20.9142 18.1202 21.1526 18.0927 21.3267L17.9185 22.5642C17.8544 23.0134 18.166 23.3251 18.6152 23.2609L19.8527 23.0867C20.0269 23.0592 20.2744 22.9401 20.3935 22.8117L23.6385 19.5667C24.1977 19.0076 24.4635 18.3567 23.6385 17.5317C22.8227 16.7159 22.1719 16.9817 21.6127 17.5409Z" stroke="white" stroke-width="1.5" stroke-miterlimit="10" stroke-linecap="round" stroke-linejoin="round"/>
<path d="M21.1445 18.0098C21.4195 18.9998 22.1895 19.7698 23.1795 20.0448" stroke="white" stroke-width="1.5" stroke-miterlimit="10" stroke-linecap="round" stroke-linejoin="round"/>
</svg>
