<svg width="35" height="35" viewBox="0 0 35 35" fill="none" xmlns="http://www.w3.org/2000/svg">
<rect width="35" height="35" rx="8" fill="#00B9ED"/>
<path d="M26.25 12.4818C23.1975 12.1793 20.1267 12.0234 17.065 12.0234C15.25 12.0234 13.435 12.1151 11.62 12.2984L9.75 12.4818" stroke="white" stroke-width="1.5" stroke-linecap="round" stroke-linejoin="round"/>
<path d="M14.7915 11.5565L14.9932 10.3557C15.1398 9.48482 15.2498 8.83398 16.799 8.83398H19.2007C20.7498 8.83398 20.869 9.52148 21.0065 10.3648L21.2082 11.5565" stroke="white" stroke-width="1.5" stroke-linecap="round" stroke-linejoin="round"/>
<path d="M24.279 15.3789L23.6832 24.6097C23.5824 26.0489 23.4999 27.1672 20.9424 27.1672H15.0574C12.4999 27.1672 12.4174 26.0489 12.3165 24.6097L11.7207 15.3789" stroke="white" stroke-width="1.5" stroke-linecap="round" stroke-linejoin="round"/>
<path d="M16.4692 22.125H19.5217" stroke="white" stroke-width="1.5" stroke-linecap="round" stroke-linejoin="round"/>
<path d="M15.7085 18.459H20.2918" stroke="white" stroke-width="1.5" stroke-linecap="round" stroke-linejoin="round"/>
</svg>
