<svg width="1034" height="373" viewBox="0 0 1034 373" fill="none" xmlns="http://www.w3.org/2000/svg">
<g filter="url(#filter0_d_659_24216)">
<path d="M4 73.9865V12C4 5.37257 9.37258 0 16 0H192C198.627 0 204 5.37258 204 12V61.9865C204 68.6139 209.373 73.9865 216 73.9865H356.5C363.127 73.9865 368.5 68.6139 368.5 61.9865V12C368.5 5.37257 373.873 0 380.5 0H1018C1024.63 0 1030 5.37258 1030 12V342.523V353C1030 359.627 1024.63 365 1018 365H913.66H16C9.3726 365 4 359.627 4 353V73.9865Z" fill="white"/>
<path d="M4.5 73.9865V12C4.5 5.64872 9.64873 0.5 16 0.5H192C198.351 0.5 203.5 5.64873 203.5 12V61.9865C203.5 68.8901 209.096 74.4865 216 74.4865H356.5C363.404 74.4865 369 68.8901 369 61.9865V12C369 5.64872 374.149 0.5 380.5 0.5H1018C1024.35 0.5 1029.5 5.64873 1029.5 12V342.523V353C1029.5 359.351 1024.35 364.5 1018 364.5H913.66H16C9.64874 364.5 4.5 359.351 4.5 353V73.9865Z" stroke="#EAEAEA"/>
</g>
<defs>
<filter id="filter0_d_659_24216" x="0" y="0" width="1034" height="373" filterUnits="userSpaceOnUse" color-interpolation-filters="sRGB">
<feFlood flood-opacity="0" result="BackgroundImageFix"/>
<feColorMatrix in="SourceAlpha" type="matrix" values="0 0 0 0 0 0 0 0 0 0 0 0 0 0 0 0 0 0 127 0" result="hardAlpha"/>
<feOffset dy="4"/>
<feGaussianBlur stdDeviation="2"/>
<feComposite in2="hardAlpha" operator="out"/>
<feColorMatrix type="matrix" values="0 0 0 0 0 0 0 0 0 0 0 0 0 0 0 0 0 0 0.05 0"/>
<feBlend mode="normal" in2="BackgroundImageFix" result="effect1_dropShadow_659_24216"/>
<feBlend mode="normal" in="SourceGraphic" in2="effect1_dropShadow_659_24216" result="shape"/>
</filter>
</defs>
</svg>
