<svg width="30" height="30" viewBox="0 0 30 30" fill="none" xmlns="http://www.w3.org/2000/svg">
<rect width="30" height="30" rx="8" fill="#70CB7B"/>
<path d="M14.5055 16.5853C15.9281 16.5853 17.0814 15.432 17.0814 14.0094C17.0814 12.5868 15.9281 11.4336 14.5055 11.4336C13.0829 11.4336 11.9297 12.5868 11.9297 14.0094C11.9297 15.432 13.0829 16.5853 14.5055 16.5853Z" stroke="white" stroke-width="1.5" stroke-linecap="round" stroke-linejoin="round"/>
<path d="M19.265 22.5162C19.265 20.3804 17.1383 18.6387 14.5075 18.6387C11.8767 18.6387 9.75 20.3712 9.75 22.5162" stroke="white" stroke-width="1.5" stroke-linecap="round" stroke-linejoin="round"/>
<path d="M23.2487 15.4583C23.2487 20.2708 19.3529 24.1667 14.5404 24.1667C9.72786 24.1667 5.83203 20.2708 5.83203 15.4583C5.83203 10.6458 9.72786 6.75 14.5404 6.75C15.7412 6.75 16.887 6.98832 17.932 7.42832C17.8129 7.79499 17.7487 8.18 17.7487 8.58333C17.7487 9.27083 17.9412 9.92166 18.2804 10.4717C18.4637 10.7833 18.702 11.0675 18.977 11.3058C19.6187 11.8925 20.4712 12.25 21.4154 12.25C21.8187 12.25 22.2037 12.1858 22.5612 12.0575C23.0012 13.1025 23.2487 14.2575 23.2487 15.4583Z" stroke="white" stroke-width="1.5" stroke-linecap="round" stroke-linejoin="round"/>
<path d="M25.0833 8.58268C25.0833 8.87602 25.0467 9.16018 24.9733 9.43518C24.8908 9.80184 24.7442 10.1593 24.5517 10.471C24.1117 11.2135 23.4058 11.791 22.5625 12.0568C22.205 12.1852 21.82 12.2493 21.4167 12.2493C20.4725 12.2493 19.62 11.8918 18.9783 11.3052C18.7033 11.0668 18.465 10.7827 18.2817 10.471C17.9425 9.92101 17.75 9.27018 17.75 8.58268C17.75 8.17935 17.8142 7.79434 17.9333 7.42767C18.1075 6.89601 18.4008 6.41937 18.7858 6.0252C19.455 5.3377 20.39 4.91602 21.4167 4.91602C22.4983 4.91602 23.4792 5.38353 24.1392 6.1352C24.7258 6.78603 25.0833 7.64768 25.0833 8.58268Z" stroke="white" stroke-width="1.5" stroke-miterlimit="10" stroke-linecap="round" stroke-linejoin="round"/>
<path d="M22.7864 8.56641H20.0547" stroke="white" stroke-width="1.5" stroke-miterlimit="10" stroke-linecap="round" stroke-linejoin="round"/>
<path d="M21.418 7.22656V9.96739" stroke="white" stroke-width="1.5" stroke-miterlimit="10" stroke-linecap="round" stroke-linejoin="round"/>
</svg>
