<svg width="30" height="30" viewBox="0 0 30 30" fill="none" xmlns="http://www.w3.org/2000/svg">
<rect width="30" height="30" rx="8" fill="#FF277A"/>
<path d="M11.7917 21.4154H11.3334C7.66671 21.4154 5.83337 20.4987 5.83337 15.9154V11.332C5.83337 7.66536 7.66671 5.83203 11.3334 5.83203H18.6667C22.3334 5.83203 24.1667 7.66536 24.1667 11.332V15.9154C24.1667 19.582 22.3334 21.4154 18.6667 21.4154H18.2084C17.9242 21.4154 17.6492 21.5529 17.475 21.782L16.1 23.6154C15.495 24.422 14.505 24.422 13.9 23.6154L12.525 21.782C12.3784 21.5804 12.0392 21.4154 11.7917 21.4154Z" stroke="white" stroke-width="1.5" stroke-miterlimit="10" stroke-linecap="round" stroke-linejoin="round"/>
<path d="M18.6634 14.0833H18.6716" stroke="white" stroke-width="2" stroke-linecap="round" stroke-linejoin="round"/>
<path d="M14.9959 14.0833H15.0041" stroke="white" stroke-width="2" stroke-linecap="round" stroke-linejoin="round"/>
<path d="M11.3283 14.0833H11.3365" stroke="white" stroke-width="2" stroke-linecap="round" stroke-linejoin="round"/>
</svg>
