<svg width="35" height="35" viewBox="0 0 35 35" fill="none" xmlns="http://www.w3.org/2000/svg">
<rect width="35" height="35" rx="8" fill="#FF870F"/>
<path d="M15.2502 27.1673H20.7502C25.3335 27.1673 27.1668 25.334 27.1668 20.7507V15.2507C27.1668 10.6673 25.3335 8.83398 20.7502 8.83398H15.2502C10.6668 8.83398 8.8335 10.6673 8.8335 15.2507V20.7507C8.8335 25.334 10.6668 27.1673 15.2502 27.1673Z" stroke="white" stroke-width="1.5" stroke-linecap="round" stroke-linejoin="round"/>
<path d="M21.2085 15.9375C21.9679 15.9375 22.5835 15.3219 22.5835 14.5625C22.5835 13.8031 21.9679 13.1875 21.2085 13.1875C20.4491 13.1875 19.8335 13.8031 19.8335 14.5625C19.8335 15.3219 20.4491 15.9375 21.2085 15.9375Z" stroke="white" stroke-width="1.5" stroke-miterlimit="10" stroke-linecap="round" stroke-linejoin="round"/>
<path d="M14.7915 15.9375C15.5509 15.9375 16.1665 15.3219 16.1665 14.5625C16.1665 13.8031 15.5509 13.1875 14.7915 13.1875C14.0321 13.1875 13.4165 13.8031 13.4165 14.5625C13.4165 15.3219 14.0321 15.9375 14.7915 15.9375Z" stroke="white" stroke-width="1.5" stroke-miterlimit="10" stroke-linecap="round" stroke-linejoin="round"/>
<path d="M14.7 19.1914H21.3C21.7583 19.1914 22.125 19.5581 22.125 20.0164C22.125 22.2989 20.2825 24.1414 18 24.1414C15.7175 24.1414 13.875 22.2989 13.875 20.0164C13.875 19.5581 14.2417 19.1914 14.7 19.1914Z" stroke="white" stroke-width="1.5" stroke-miterlimit="10" stroke-linecap="round" stroke-linejoin="round"/>
</svg>
