<svg width="30" height="30" viewBox="0 0 30 30" fill="none" xmlns="http://www.w3.org/2000/svg">
<rect width="30" height="30" rx="8" fill="#D351FF"/>
<path d="M10.6511 5.83203H19.332C19.9278 5.83203 20.4595 5.85039 20.9361 5.91456C23.4753 6.19872 24.1628 7.39037 24.1628 10.6537V16.447C24.1628 19.7104 23.4753 20.902 20.9361 21.1862C20.4595 21.2504 19.937 21.2687 19.332 21.2687H10.6511C10.0553 21.2687 9.52364 21.2504 9.04697 21.1862C6.5078 20.902 5.82031 19.7104 5.82031 16.447V10.6537C5.82031 7.39037 6.5078 6.19872 9.04697 5.91456C9.52364 5.85039 10.0553 5.83203 10.6511 5.83203Z" stroke="white" stroke-width="1.5" stroke-linecap="round" stroke-linejoin="round"/>
<path d="M16.4453 11.625H19.8186" stroke="white" stroke-width="1.5" stroke-linecap="round" stroke-linejoin="round"/>
<path d="M10.1758 16.9316H10.1941H19.8283" stroke="white" stroke-width="1.5" stroke-linecap="round" stroke-linejoin="round"/>
<path d="M10.418 24.166H19.5846" stroke="white" stroke-width="1.5" stroke-linecap="round" stroke-linejoin="round"/>
<path d="M10.5939 11.6087H10.6022" stroke="white" stroke-width="2" stroke-linecap="round" stroke-linejoin="round"/>
<path d="M13.6213 11.6087H13.6295" stroke="white" stroke-width="2" stroke-linecap="round" stroke-linejoin="round"/>
</svg>
