<svg width="35" height="35" viewBox="0 0 35 35" fill="none" xmlns="http://www.w3.org/2000/svg">
<rect width="35" height="35" rx="8" fill="#FF007B"/>
<path d="M23.5002 13.5659C23.4452 13.5568 23.3811 13.5568 23.3261 13.5659C22.0611 13.5201 21.0527 12.4843 21.0527 11.2009C21.0527 9.89011 22.1069 8.83594 23.4177 8.83594C24.7286 8.83594 25.7827 9.89927 25.7827 11.2009C25.7736 12.4843 24.7652 13.5201 23.5002 13.5659Z" stroke="white" stroke-width="1.5" stroke-linecap="round" stroke-linejoin="round"/>
<path d="M22.5558 20.2394C23.8117 20.4503 25.1958 20.2303 26.1675 19.5794C27.46 18.7178 27.46 17.3061 26.1675 16.4444C25.1867 15.7936 23.7842 15.5736 22.5283 15.7936" stroke="white" stroke-width="1.5" stroke-linecap="round" stroke-linejoin="round"/>
<path d="M12.4724 13.5659C12.5274 13.5568 12.5916 13.5568 12.6466 13.5659C13.9116 13.5201 14.9199 12.4843 14.9199 11.2009C14.9199 9.89011 13.8658 8.83594 12.5549 8.83594C11.2441 8.83594 10.1899 9.89927 10.1899 11.2009C10.1991 12.4843 11.2074 13.5201 12.4724 13.5659Z" stroke="white" stroke-width="1.5" stroke-linecap="round" stroke-linejoin="round"/>
<path d="M13.4165 20.2394C12.1607 20.4503 10.7765 20.2303 9.80482 19.5794C8.51232 18.7178 8.51232 17.3061 9.80482 16.4444C10.7857 15.7936 12.1882 15.5736 13.444 15.7936" stroke="white" stroke-width="1.5" stroke-linecap="round" stroke-linejoin="round"/>
<path d="M18.0001 20.4097C17.9451 20.4005 17.8809 20.4005 17.8259 20.4097C16.5609 20.3639 15.5526 19.328 15.5526 18.0447C15.5526 16.7339 16.6068 15.6797 17.9176 15.6797C19.2284 15.6797 20.2826 16.743 20.2826 18.0447C20.2734 19.328 19.2651 20.373 18.0001 20.4097Z" stroke="white" stroke-width="1.5" stroke-linecap="round" stroke-linejoin="round"/>
<path d="M15.3327 23.2991C14.0402 24.1607 14.0402 25.5724 15.3327 26.4341C16.7993 27.4149 19.201 27.4149 20.6677 26.4341C21.9602 25.5724 21.9602 24.1607 20.6677 23.2991C19.2102 22.3274 16.7993 22.3274 15.3327 23.2991Z" stroke="white" stroke-width="1.5" stroke-linecap="round" stroke-linejoin="round"/>
</svg>
